<?xml version="1.0" encoding="UTF-8" standalone="no"?><svg xmlns="http://www.w3.org/2000/svg" xmlns:xlink="http://www.w3.org/1999/xlink" contentStyleType="text/css" height="223px" preserveAspectRatio="none" style="width:539px;height:223px;background:#FFFFFF;" version="1.1" viewBox="0 0 539 223" width="539px" zoomAndPan="magnify"><defs/><g><!--cluster controllers--><g id="cluster_controllers"><path d="M8.5,6.602 L84.5,6.602 A3.75,3.75 0 0 1 87,9.102 L94,31.6699 L529.5,31.6699 A2.5,2.5 0 0 1 532,34.1699 L532,214.102 A2.5,2.5 0 0 1 529.5,216.602 L8.5,216.602 A2.5,2.5 0 0 1 6,214.102 L6,9.102 A2.5,2.5 0 0 1 8.5,6.602 " fill="none" style="stroke:#000000;stroke-width:1.5;"/><line style="stroke:#000000;stroke-width:1.5;" x1="6" x2="94" y1="31.6699" y2="31.6699"/><text fill="#000000" font-family="sans-serif" font-size="14" font-weight="bold" lengthAdjust="spacing" textLength="75" x="10" y="23.5679">controllers</text></g><!--class Controller--><g id="elem_Controller"><rect codeLine="30" fill="#F1F1F1" height="48" id="Controller" rx="2.5" ry="2.5" style="stroke:#181818;stroke-width:0.5;" width="99" x="212.5" y="152.602"/><ellipse cx="227.5" cy="168.602" fill="#ADD1B2" rx="11" ry="11" style="stroke:#181818;stroke-width:1.0;"/><path d="M226.9688,175.5239 Q225.2188,175.5239 224.0781,174.7895 Q222.9531,174.0395 222.3906,172.6957 Q221.8438,171.3364 221.8438,169.5395 Q221.8438,167.5082 222.5,166.0551 Q223.1563,164.602 224.4375,163.8207 Q225.7188,163.0395 227.5938,163.0395 Q228.4844,163.0395 229.1563,163.227 Q229.8281,163.3989 230.5156,163.7426 L229.7031,165.7582 Q229.0781,165.4457 228.5313,165.3207 Q228,165.1957 227.5156,165.1957 Q226.3438,165.1957 225.6406,165.727 Q224.9375,166.2582 224.6406,167.2114 Q224.3438,168.1645 224.3438,169.4301 Q224.3438,171.4457 225.0625,172.4145 Q225.7813,173.3676 227.375,173.3676 Q227.9688,173.3676 228.5938,173.2114 Q229.2188,173.0551 230.0469,172.6801 L230.0469,174.8989 Q229.3125,175.2114 228.5156,175.3676 Q227.7344,175.5239 226.9688,175.5239 Z " fill="#000000"/><text fill="#000000" font-family="sans-serif" font-size="14" lengthAdjust="spacing" textLength="67" x="241.5" y="174.034">Controller</text><line style="stroke:#181818;stroke-width:0.5;" x1="213.5" x2="310.5" y1="184.602" y2="184.602"/><line style="stroke:#181818;stroke-width:0.5;" x1="213.5" x2="310.5" y1="192.602" y2="192.602"/></g><!--class ConfigController--><g id="elem_ConfigController"><rect codeLine="31" fill="#F1F1F1" height="48" id="ConfigController" rx="2.5" ry="2.5" style="stroke:#181818;stroke-width:0.5;" width="143" x="372.5" y="44.602"/><ellipse cx="387.5" cy="60.602" fill="#ADD1B2" rx="11" ry="11" style="stroke:#181818;stroke-width:1.0;"/><path d="M386.9688,67.5239 Q385.2188,67.5239 384.0781,66.7895 Q382.9531,66.0395 382.3906,64.6957 Q381.8438,63.3364 381.8438,61.5395 Q381.8438,59.5082 382.5,58.0551 Q383.1563,56.602 384.4375,55.8207 Q385.7188,55.0395 387.5938,55.0395 Q388.4844,55.0395 389.1563,55.227 Q389.8281,55.3989 390.5156,55.7426 L389.7031,57.7582 Q389.0781,57.4457 388.5313,57.3207 Q388,57.1957 387.5156,57.1957 Q386.3438,57.1957 385.6406,57.727 Q384.9375,58.2582 384.6406,59.2114 Q384.3438,60.1645 384.3438,61.4301 Q384.3438,63.4457 385.0625,64.4145 Q385.7813,65.3676 387.375,65.3676 Q387.9688,65.3676 388.5938,65.2114 Q389.2188,65.0551 390.0469,64.6801 L390.0469,66.8989 Q389.3125,67.2114 388.5156,67.3676 Q387.7344,67.5239 386.9688,67.5239 Z " fill="#000000"/><text fill="#000000" font-family="sans-serif" font-size="14" lengthAdjust="spacing" textLength="111" x="401.5" y="66.034">ConfigController</text><line style="stroke:#181818;stroke-width:0.5;" x1="373.5" x2="514.5" y1="76.602" y2="76.602"/><line style="stroke:#181818;stroke-width:0.5;" x1="373.5" x2="514.5" y1="84.602" y2="84.602"/></g><!--class SessionController--><g id="elem_SessionController"><rect codeLine="32" fill="#F1F1F1" height="48" id="SessionController" rx="2.5" ry="2.5" style="stroke:#181818;stroke-width:0.5;" width="150" x="187" y="44.602"/><ellipse cx="202" cy="60.602" fill="#ADD1B2" rx="11" ry="11" style="stroke:#181818;stroke-width:1.0;"/><path d="M201.4688,67.5239 Q199.7188,67.5239 198.5781,66.7895 Q197.4531,66.0395 196.8906,64.6957 Q196.3438,63.3364 196.3438,61.5395 Q196.3438,59.5082 197,58.0551 Q197.6563,56.602 198.9375,55.8207 Q200.2188,55.0395 202.0938,55.0395 Q202.9844,55.0395 203.6563,55.227 Q204.3281,55.3989 205.0156,55.7426 L204.2031,57.7582 Q203.5781,57.4457 203.0313,57.3207 Q202.5,57.1957 202.0156,57.1957 Q200.8438,57.1957 200.1406,57.727 Q199.4375,58.2582 199.1406,59.2114 Q198.8438,60.1645 198.8438,61.4301 Q198.8438,63.4457 199.5625,64.4145 Q200.2813,65.3676 201.875,65.3676 Q202.4688,65.3676 203.0938,65.2114 Q203.7188,65.0551 204.5469,64.6801 L204.5469,66.8989 Q203.8125,67.2114 203.0156,67.3676 Q202.2344,67.5239 201.4688,67.5239 Z " fill="#000000"/><text fill="#000000" font-family="sans-serif" font-size="14" lengthAdjust="spacing" textLength="118" x="216" y="66.034">SessionController</text><line style="stroke:#181818;stroke-width:0.5;" x1="188" x2="336" y1="76.602" y2="76.602"/><line style="stroke:#181818;stroke-width:0.5;" x1="188" x2="336" y1="84.602" y2="84.602"/></g><!--class UserController--><g id="elem_UserController"><rect codeLine="33" fill="#F1F1F1" height="48" id="UserController" rx="2.5" ry="2.5" style="stroke:#181818;stroke-width:0.5;" width="130" x="22" y="44.602"/><ellipse cx="37" cy="60.602" fill="#ADD1B2" rx="11" ry="11" style="stroke:#181818;stroke-width:1.0;"/><path d="M36.4688,67.5239 Q34.7188,67.5239 33.5781,66.7895 Q32.4531,66.0395 31.8906,64.6957 Q31.3438,63.3364 31.3438,61.5395 Q31.3438,59.5082 32,58.0551 Q32.6563,56.602 33.9375,55.8207 Q35.2188,55.0395 37.0938,55.0395 Q37.9844,55.0395 38.6563,55.227 Q39.3281,55.3989 40.0156,55.7426 L39.2031,57.7582 Q38.5781,57.4457 38.0313,57.3207 Q37.5,57.1957 37.0156,57.1957 Q35.8438,57.1957 35.1406,57.727 Q34.4375,58.2582 34.1406,59.2114 Q33.8438,60.1645 33.8438,61.4301 Q33.8438,63.4457 34.5625,64.4145 Q35.2813,65.3676 36.875,65.3676 Q37.4688,65.3676 38.0938,65.2114 Q38.7188,65.0551 39.5469,64.6801 L39.5469,66.8989 Q38.8125,67.2114 38.0156,67.3676 Q37.2344,67.5239 36.4688,67.5239 Z " fill="#000000"/><text fill="#000000" font-family="sans-serif" font-size="14" lengthAdjust="spacing" textLength="98" x="51" y="66.034">UserController</text><line style="stroke:#181818;stroke-width:0.5;" x1="23" x2="151" y1="76.602" y2="76.602"/><line style="stroke:#181818;stroke-width:0.5;" x1="23" x2="151" y1="84.602" y2="84.602"/></g><!--link ConfigController to Controller--><g id="link_ConfigController_Controller"><path codeLine="36" d="M404.06,92.862 C379.61,107.102 347.88,125.582 320.62,141.462 " fill="none" id="ConfigController-to-Controller" style="stroke:#181818;stroke-width:1.0;"/><polygon fill="none" points="324.27,147.432,303.47,151.452,317.23,135.332,324.27,147.432" style="stroke:#181818;stroke-width:1.0;"/></g><!--link SessionController to Controller--><g id="link_SessionController_Controller"><path codeLine="37" d="M262,92.862 C262,104.052 262,117.842 262,130.942 " fill="none" id="SessionController-to-Controller" style="stroke:#181818;stroke-width:1.0;"/><polygon fill="none" points="269,130.882,262,150.882,255,130.882,269,130.882" style="stroke:#181818;stroke-width:1.0;"/></g><!--link UserController to Controller--><g id="link_UserController_Controller"><path codeLine="38" d="M125.4,92.862 C148.8,107.032 179.13,125.402 205.26,141.232 " fill="none" id="UserController-to-Controller" style="stroke:#181818;stroke-width:1.0;"/><polygon fill="none" points="208.61,135.082,222.09,151.432,201.36,147.052,208.61,135.082" style="stroke:#181818;stroke-width:1.0;"/></g><!--SRC=[Kr0eI4pEJanFLKZEpoifoi_9IIqgLgZcKW22v9p4uc85PxYuGdKjgdXQPZeksU3KukBC_3nSqg75gKNeShLSG0B3L5tT6ZiaDm2LO1gDgGRDV7G50000]--></g></svg>