<?xml version="1.0" encoding="UTF-8" standalone="no"?><svg xmlns="http://www.w3.org/2000/svg" xmlns:xlink="http://www.w3.org/1999/xlink" contentStyleType="text/css" height="377px" preserveAspectRatio="none" style="width:386px;height:377px;background:#FFFFFF;" version="1.1" viewBox="0 0 386 377" width="386px" zoomAndPan="magnify"><defs/><g><!--cluster models--><g id="cluster_models"><path d="M8.5,6.602 L60.5,6.602 A3.75,3.75 0 0 1 63,9.102 L70,31.6699 L376.5,31.6699 A2.5,2.5 0 0 1 379,34.1699 L379,368.102 A2.5,2.5 0 0 1 376.5,370.602 L8.5,370.602 A2.5,2.5 0 0 1 6,368.102 L6,9.102 A2.5,2.5 0 0 1 8.5,6.602 " fill="none" style="stroke:#000000;stroke-width:1.5;"/><line style="stroke:#000000;stroke-width:1.5;" x1="6" x2="70" y1="31.6699" y2="31.6699"/><text fill="#000000" font-family="sans-serif" font-size="14" font-weight="bold" lengthAdjust="spacing" textLength="51" x="10" y="23.5679">models</text></g><!--cluster mongo--><g id="cluster_mongo"><path d="M32.5,52.602 L83.5,52.602 A3.75,3.75 0 0 1 86,55.102 L93,77.6699 L352.5,77.6699 A2.5,2.5 0 0 1 355,80.1699 L355,152.102 A2.5,2.5 0 0 1 352.5,154.602 L32.5,154.602 A2.5,2.5 0 0 1 30,152.102 L30,55.102 A2.5,2.5 0 0 1 32.5,52.602 " fill="none" style="stroke:#000000;stroke-width:1.5;"/><line style="stroke:#000000;stroke-width:1.5;" x1="30" x2="93" y1="77.6699" y2="77.6699"/><text fill="#000000" font-family="sans-serif" font-size="14" font-weight="bold" lengthAdjust="spacing" textLength="50" x="34" y="69.5679">mongo</text></g><!--class IModel--><g id="elem_IModel"><rect codeLine="68" fill="#F1F1F1" height="48" id="IModel" rx="2.5" ry="2.5" style="stroke:#181818;stroke-width:0.5;" width="76" x="161" y="306.602"/><ellipse cx="176" cy="322.602" fill="#B4A7E5" rx="11" ry="11" style="stroke:#181818;stroke-width:1.0;"/><path d="M172.0313,329.102 L172.0313,327.3989 L174.3906,327.1332 L174.3906,318.9301 L172.0313,318.6645 L172.0313,316.9614 L179.1719,316.9614 L179.1719,318.6645 L176.75,318.9301 L176.75,327.1332 L179.1719,327.3989 L179.1719,329.102 L172.0313,329.102 Z " fill="#000000"/><text fill="#000000" font-family="sans-serif" font-size="14" font-style="italic" lengthAdjust="spacing" textLength="44" x="190" y="328.034">IModel</text><line style="stroke:#181818;stroke-width:0.5;" x1="162" x2="236" y1="338.602" y2="338.602"/><line style="stroke:#181818;stroke-width:0.5;" x1="162" x2="236" y1="346.602" y2="346.602"/></g><!--class IConfig--><g id="elem_IConfig"><rect codeLine="69" fill="#F1F1F1" height="48" id="IConfig" rx="2.5" ry="2.5" style="stroke:#181818;stroke-width:0.5;" width="77" x="45.5" y="198.602"/><ellipse cx="60.5" cy="214.602" fill="#B4A7E5" rx="11" ry="11" style="stroke:#181818;stroke-width:1.0;"/><path d="M56.5313,221.102 L56.5313,219.3989 L58.8906,219.1332 L58.8906,210.9301 L56.5313,210.6645 L56.5313,208.9614 L63.6719,208.9614 L63.6719,210.6645 L61.25,210.9301 L61.25,219.1332 L63.6719,219.3989 L63.6719,221.102 L56.5313,221.102 Z " fill="#000000"/><text fill="#000000" font-family="sans-serif" font-size="14" font-style="italic" lengthAdjust="spacing" textLength="45" x="74.5" y="220.034">IConfig</text><line style="stroke:#181818;stroke-width:0.5;" x1="46.5" x2="121.5" y1="230.602" y2="230.602"/><line style="stroke:#181818;stroke-width:0.5;" x1="46.5" x2="121.5" y1="238.602" y2="238.602"/></g><!--class ISession--><g id="elem_ISession"><rect codeLine="70" fill="#F1F1F1" height="48" id="ISession" rx="2.5" ry="2.5" style="stroke:#181818;stroke-width:0.5;" width="83" x="157.5" y="198.602"/><ellipse cx="172.5" cy="214.602" fill="#B4A7E5" rx="11" ry="11" style="stroke:#181818;stroke-width:1.0;"/><path d="M168.5313,221.102 L168.5313,219.3989 L170.8906,219.1332 L170.8906,210.9301 L168.5313,210.6645 L168.5313,208.9614 L175.6719,208.9614 L175.6719,210.6645 L173.25,210.9301 L173.25,219.1332 L175.6719,219.3989 L175.6719,221.102 L168.5313,221.102 Z " fill="#000000"/><text fill="#000000" font-family="sans-serif" font-size="14" font-style="italic" lengthAdjust="spacing" textLength="51" x="186.5" y="220.034">ISession</text><line style="stroke:#181818;stroke-width:0.5;" x1="158.5" x2="239.5" y1="230.602" y2="230.602"/><line style="stroke:#181818;stroke-width:0.5;" x1="158.5" x2="239.5" y1="238.602" y2="238.602"/></g><!--class IUser--><g id="elem_IUser"><rect codeLine="71" fill="#F1F1F1" height="48" id="IUser" rx="2.5" ry="2.5" style="stroke:#181818;stroke-width:0.5;" width="65" x="275.5" y="198.602"/><ellipse cx="290.5" cy="214.602" fill="#B4A7E5" rx="11" ry="11" style="stroke:#181818;stroke-width:1.0;"/><path d="M286.5313,221.102 L286.5313,219.3989 L288.8906,219.1332 L288.8906,210.9301 L286.5313,210.6645 L286.5313,208.9614 L293.6719,208.9614 L293.6719,210.6645 L291.25,210.9301 L291.25,219.1332 L293.6719,219.3989 L293.6719,221.102 L286.5313,221.102 Z " fill="#000000"/><text fill="#000000" font-family="sans-serif" font-size="14" font-style="italic" lengthAdjust="spacing" textLength="33" x="304.5" y="220.034">IUser</text><line style="stroke:#181818;stroke-width:0.5;" x1="276.5" x2="339.5" y1="230.602" y2="230.602"/><line style="stroke:#181818;stroke-width:0.5;" x1="276.5" x2="339.5" y1="238.602" y2="238.602"/></g><!--class Config--><g id="elem_Config"><rect codeLine="74" fill="#F1F1F1" height="48" id="Config" rx="2.5" ry="2.5" style="stroke:#181818;stroke-width:0.5;" width="76" x="46" y="90.602"/><ellipse cx="61" cy="106.602" fill="#ADD1B2" rx="11" ry="11" style="stroke:#181818;stroke-width:1.0;"/><path d="M60.4688,113.5239 Q58.7188,113.5239 57.5781,112.7895 Q56.4531,112.0395 55.8906,110.6957 Q55.3438,109.3364 55.3438,107.5395 Q55.3438,105.5082 56,104.0551 Q56.6563,102.602 57.9375,101.8207 Q59.2188,101.0395 61.0938,101.0395 Q61.9844,101.0395 62.6563,101.227 Q63.3281,101.3989 64.0156,101.7426 L63.2031,103.7582 Q62.5781,103.4457 62.0313,103.3207 Q61.5,103.1957 61.0156,103.1957 Q59.8438,103.1957 59.1406,103.727 Q58.4375,104.2582 58.1406,105.2114 Q57.8438,106.1645 57.8438,107.4301 Q57.8438,109.4457 58.5625,110.4145 Q59.2813,111.3676 60.875,111.3676 Q61.4688,111.3676 62.0938,111.2114 Q62.7188,111.0551 63.5469,110.6801 L63.5469,112.8989 Q62.8125,113.2114 62.0156,113.3676 Q61.2344,113.5239 60.4688,113.5239 Z " fill="#000000"/><text fill="#000000" font-family="sans-serif" font-size="14" lengthAdjust="spacing" textLength="44" x="75" y="112.034">Config</text><line style="stroke:#181818;stroke-width:0.5;" x1="47" x2="121" y1="122.602" y2="122.602"/><line style="stroke:#181818;stroke-width:0.5;" x1="47" x2="121" y1="130.602" y2="130.602"/></g><!--class Session--><g id="elem_Session"><rect codeLine="75" fill="#F1F1F1" height="48" id="Session" rx="2.5" ry="2.5" style="stroke:#181818;stroke-width:0.5;" width="83" x="157.5" y="90.602"/><ellipse cx="172.5" cy="106.602" fill="#ADD1B2" rx="11" ry="11" style="stroke:#181818;stroke-width:1.0;"/><path d="M171.9688,113.5239 Q170.2188,113.5239 169.0781,112.7895 Q167.9531,112.0395 167.3906,110.6957 Q166.8438,109.3364 166.8438,107.5395 Q166.8438,105.5082 167.5,104.0551 Q168.1563,102.602 169.4375,101.8207 Q170.7188,101.0395 172.5938,101.0395 Q173.4844,101.0395 174.1563,101.227 Q174.8281,101.3989 175.5156,101.7426 L174.7031,103.7582 Q174.0781,103.4457 173.5313,103.3207 Q173,103.1957 172.5156,103.1957 Q171.3438,103.1957 170.6406,103.727 Q169.9375,104.2582 169.6406,105.2114 Q169.3438,106.1645 169.3438,107.4301 Q169.3438,109.4457 170.0625,110.4145 Q170.7813,111.3676 172.375,111.3676 Q172.9688,111.3676 173.5938,111.2114 Q174.2188,111.0551 175.0469,110.6801 L175.0469,112.8989 Q174.3125,113.2114 173.5156,113.3676 Q172.7344,113.5239 171.9688,113.5239 Z " fill="#000000"/><text fill="#000000" font-family="sans-serif" font-size="14" lengthAdjust="spacing" textLength="51" x="186.5" y="112.034">Session</text><line style="stroke:#181818;stroke-width:0.5;" x1="158.5" x2="239.5" y1="122.602" y2="122.602"/><line style="stroke:#181818;stroke-width:0.5;" x1="158.5" x2="239.5" y1="130.602" y2="130.602"/></g><!--class User--><g id="elem_User"><rect codeLine="76" fill="#F1F1F1" height="48" id="User" rx="2.5" ry="2.5" style="stroke:#181818;stroke-width:0.5;" width="63" x="275.5" y="90.602"/><ellipse cx="290.5" cy="106.602" fill="#ADD1B2" rx="11" ry="11" style="stroke:#181818;stroke-width:1.0;"/><path d="M289.9688,113.5239 Q288.2188,113.5239 287.0781,112.7895 Q285.9531,112.0395 285.3906,110.6957 Q284.8438,109.3364 284.8438,107.5395 Q284.8438,105.5082 285.5,104.0551 Q286.1563,102.602 287.4375,101.8207 Q288.7188,101.0395 290.5938,101.0395 Q291.4844,101.0395 292.1563,101.227 Q292.8281,101.3989 293.5156,101.7426 L292.7031,103.7582 Q292.0781,103.4457 291.5313,103.3207 Q291,103.1957 290.5156,103.1957 Q289.3438,103.1957 288.6406,103.727 Q287.9375,104.2582 287.6406,105.2114 Q287.3438,106.1645 287.3438,107.4301 Q287.3438,109.4457 288.0625,110.4145 Q288.7813,111.3676 290.375,111.3676 Q290.9688,111.3676 291.5938,111.2114 Q292.2188,111.0551 293.0469,110.6801 L293.0469,112.8989 Q292.3125,113.2114 291.5156,113.3676 Q290.7344,113.5239 289.9688,113.5239 Z " fill="#000000"/><text fill="#000000" font-family="sans-serif" font-size="14" lengthAdjust="spacing" textLength="31" x="304.5" y="112.034">User</text><line style="stroke:#181818;stroke-width:0.5;" x1="276.5" x2="337.5" y1="122.602" y2="122.602"/><line style="stroke:#181818;stroke-width:0.5;" x1="276.5" x2="337.5" y1="130.602" y2="130.602"/></g><!--link IConfig to IModel--><g id="link_IConfig_IModel"><path codeLine="80" d="M109.24,246.862 C123.54,260.052 141.79,276.872 158.09,291.892 " fill="none" id="IConfig-to-IModel" style="stroke:#181818;stroke-width:1.0;"/><polygon fill="none" points="162.75,286.662,172.71,305.372,153.26,296.962,162.75,286.662" style="stroke:#181818;stroke-width:1.0;"/></g><!--link ISession to IModel--><g id="link_ISession_IModel"><path codeLine="81" d="M199,246.862 C199,258.052 199,271.842 199,284.942 " fill="none" id="ISession-to-IModel" style="stroke:#181818;stroke-width:1.0;"/><polygon fill="none" points="206,284.882,199,304.882,192,284.882,206,284.882" style="stroke:#181818;stroke-width:1.0;"/></g><!--link IUser to IModel--><g id="link_IUser_IModel"><path codeLine="82" d="M284.08,246.862 C270.59,259.982 253.41,276.692 238.02,291.652 " fill="none" id="IUser-to-IModel" style="stroke:#181818;stroke-width:1.0;"/><polygon fill="none" points="243.17,296.412,223.95,305.342,233.41,286.382,243.17,296.412" style="stroke:#181818;stroke-width:1.0;"/></g><!--link Config to IConfig--><g id="link_Config_IConfig"><path codeLine="84" d="M84,138.862 C84,150.052 84,163.842 84,176.942 " fill="none" id="Config-to-IConfig" style="stroke:#181818;stroke-width:1.0;"/><polygon fill="none" points="91,176.882,84,196.882,77,176.882,91,176.882" style="stroke:#181818;stroke-width:1.0;"/></g><!--link Session to ISession--><g id="link_Session_ISession"><path codeLine="85" d="M199,138.862 C199,150.052 199,163.842 199,176.942 " fill="none" id="Session-to-ISession" style="stroke:#181818;stroke-width:1.0;"/><polygon fill="none" points="206,176.882,199,196.882,192,176.882,206,176.882" style="stroke:#181818;stroke-width:1.0;"/></g><!--link User to IUser--><g id="link_User_IUser"><path codeLine="86" d="M307.22,138.862 C307.32,150.052 307.46,163.842 307.58,176.942 " fill="none" id="User-to-IUser" style="stroke:#181818;stroke-width:1.0;"/><polygon fill="none" points="314.58,176.812,307.77,196.882,300.58,176.952,314.58,176.812" style="stroke:#181818;stroke-width:1.0;"/></g><!--SRC=[ROyn3eKW40LxJx4Ny0esLXPMnWCGN0dv2iQrK-ykouSWn2q8Eo-P1m2Ra3-X45OxuK9mLk16cmFtMKY4hcSEvrtorffPguzWG29jpKSo4kwCFK-zHjbGooCNGGIvFV52deBePiAdRucFhEkh2JzX6YK5zeetSp0J_1T7Sq7O77yP-Fe0]--></g></svg>