<?xml version="1.0" encoding="UTF-8" standalone="no"?><svg xmlns="http://www.w3.org/2000/svg" xmlns:xlink="http://www.w3.org/1999/xlink" contentStyleType="text/css" height="619px" preserveAspectRatio="none" style="width:337px;height:619px;background:#FFFFFF;" version="1.1" viewBox="0 0 337 619" width="337px" zoomAndPan="magnify"><defs/><g><path d="M251,38.5 L295,38.5 A3.75,3.75 0 0 1 297.5,41 L304.5,63.5679 L309,63.5679 A2.5,2.5 0 0 1 311.5,66.0679 L311.5,94.1358 A2.5,2.5 0 0 1 309,96.6358 L251,96.6358 A2.5,2.5 0 0 1 248.5,94.1358 L248.5,41 A2.5,2.5 0 0 1 251,38.5 " fill="#F1F1F1" style="stroke:#181818;stroke-width:0.5;"/><line style="stroke:#181818;stroke-width:0.5;" x1="248.5" x2="304.5" y1="63.5679" y2="63.5679"/><text fill="#000000" font-family="sans-serif" font-size="14" lengthAdjust="spacing" textLength="43" x="252.5" y="55.4659">routes</text><path d="M236.5,151.5 L309.5,151.5 A3.75,3.75 0 0 1 312,154 L319,176.5679 L323.5,176.5679 A2.5,2.5 0 0 1 326,179.0679 L326,207.1358 A2.5,2.5 0 0 1 323.5,209.6358 L236.5,209.6358 A2.5,2.5 0 0 1 234,207.1358 L234,154 A2.5,2.5 0 0 1 236.5,151.5 " fill="#F1F1F1" style="stroke:#181818;stroke-width:0.5;"/><line style="stroke:#181818;stroke-width:0.5;" x1="234" x2="319" y1="176.5679" y2="176.5679"/><text fill="#000000" font-family="sans-serif" font-size="14" lengthAdjust="spacing" textLength="72" x="238" y="168.4659">controllers</text><path d="M232.5,329.5 L313.5,329.5 A3.75,3.75 0 0 1 316,332 L323,354.5679 L327.5,354.5679 A2.5,2.5 0 0 1 330,357.0679 L330,385.1358 A2.5,2.5 0 0 1 327.5,387.6358 L232.5,387.6358 A2.5,2.5 0 0 1 230,385.1358 L230,332 A2.5,2.5 0 0 1 232.5,329.5 " fill="#F1F1F1" style="stroke:#181818;stroke-width:0.5;"/><line style="stroke:#181818;stroke-width:0.5;" x1="230" x2="323" y1="354.5679" y2="354.5679"/><text fill="#000000" font-family="sans-serif" font-size="14" lengthAdjust="spacing" textLength="80" x="234" y="346.4659">repositories</text><path d="M248,469.5 L298,469.5 A3.75,3.75 0 0 1 300.5,472 L307.5,494.5679 L312,494.5679 A2.5,2.5 0 0 1 314.5,497.0679 L314.5,525.1358 A2.5,2.5 0 0 1 312,527.6358 L248,527.6358 A2.5,2.5 0 0 1 245.5,525.1358 L245.5,472 A2.5,2.5 0 0 1 248,469.5 " fill="#F1F1F1" style="stroke:#181818;stroke-width:0.5;"/><line style="stroke:#181818;stroke-width:0.5;" x1="245.5" x2="307.5" y1="494.5679" y2="494.5679"/><text fill="#000000" font-family="sans-serif" font-size="14" lengthAdjust="spacing" textLength="49" x="249.5" y="486.4659">models</text><g id="elem_routenote"><path d="M31,6 L31,86.8241 L145,86.8241 L145,16 L135,6 L31,6 " fill="#FEFFDD" style="stroke:#181818;stroke-width:0.5;"/><path d="M135,6 L135,16 L145,16 L135,6 " fill="#FEFFDD" style="stroke:#181818;stroke-width:1.0;"/><text fill="#000000" font-family="sans-serif" font-size="13" lengthAdjust="spacing" textLength="41" x="37" y="24.897">Gather</text><text fill="#000000" font-family="sans-serif" font-size="13" lengthAdjust="spacing" textLength="3" x="78" y="24.897"> </text><text fill="#000000" font-family="sans-serif" font-size="13" lengthAdjust="spacing" textLength="20" x="81" y="24.897">the</text><text fill="#000000" font-family="sans-serif" font-size="13" lengthAdjust="spacing" textLength="63" x="37" y="42.603">approriate</text><text fill="#000000" font-family="sans-serif" font-size="13" lengthAdjust="spacing" textLength="3" x="100" y="42.603"> </text><text fill="#000000" font-family="sans-serif" font-size="13" lengthAdjust="spacing" textLength="27" x="103" y="42.603">data</text><text fill="#000000" font-family="sans-serif" font-size="13" lengthAdjust="spacing" textLength="29" x="37" y="60.309">from</text><text fill="#000000" font-family="sans-serif" font-size="13" lengthAdjust="spacing" textLength="3" x="66" y="60.309"> </text><text fill="#000000" font-family="sans-serif" font-size="13" lengthAdjust="spacing" textLength="32" x="69" y="60.309">HTTP</text><text fill="#000000" font-family="sans-serif" font-size="13" lengthAdjust="spacing" textLength="55" x="37" y="78.0151">requests.</text></g><g id="elem_ctrlnote"><path d="M34.5,122.5 L34.5,238.7361 L141.5,238.7361 L141.5,132.5 L131.5,122.5 L34.5,122.5 " fill="#FEFFDD" style="stroke:#181818;stroke-width:0.5;"/><path d="M131.5,122.5 L131.5,132.5 L141.5,132.5 L131.5,122.5 " fill="#FEFFDD" style="stroke:#181818;stroke-width:1.0;"/><text fill="#000000" font-family="sans-serif" font-size="13" lengthAdjust="spacing" textLength="43" x="40.5" y="141.397">Handle</text><text fill="#000000" font-family="sans-serif" font-size="13" lengthAdjust="spacing" textLength="74" x="40.5" y="159.103">appplication</text><text fill="#000000" font-family="sans-serif" font-size="13" lengthAdjust="spacing" textLength="52" x="40.5" y="176.809">business</text><text fill="#000000" font-family="sans-serif" font-size="13" lengthAdjust="spacing" textLength="3" x="92.5" y="176.809"> </text><text fill="#000000" font-family="sans-serif" font-size="13" lengthAdjust="spacing" textLength="31" x="95.5" y="176.809">logic;</text><text fill="#000000" font-family="sans-serif" font-size="13" lengthAdjust="spacing" textLength="19" x="40.5" y="194.5151">call</text><text fill="#000000" font-family="sans-serif" font-size="13" lengthAdjust="spacing" textLength="3" x="59.5" y="194.5151"> </text><text fill="#000000" font-family="sans-serif" font-size="13" lengthAdjust="spacing" textLength="51" x="62.5" y="194.5151">required</text><text fill="#000000" font-family="sans-serif" font-size="13" lengthAdjust="spacing" textLength="58" x="40.5" y="212.2211">controller</text><text fill="#000000" font-family="sans-serif" font-size="13" lengthAdjust="spacing" textLength="57" x="40.5" y="229.9271">methods.</text></g><g id="elem_reponote"><path d="M6,274 L6,443.3541 L170,443.3541 L170,284 L160,274 L6,274 " fill="#FEFFDD" style="stroke:#181818;stroke-width:0.5;"/><path d="M160,274 L160,284 L170,284 L160,274 " fill="#FEFFDD" style="stroke:#181818;stroke-width:1.0;"/><text fill="#000000" font-family="sans-serif" font-size="13" lengthAdjust="spacing" textLength="84" x="12" y="292.897">Communicate</text><text fill="#000000" font-family="sans-serif" font-size="13" lengthAdjust="spacing" textLength="26" x="12" y="310.603">with</text><text fill="#000000" font-family="sans-serif" font-size="13" lengthAdjust="spacing" textLength="3" x="38" y="310.603"> </text><text fill="#000000" font-family="sans-serif" font-size="13" lengthAdjust="spacing" textLength="60" x="41" y="310.603">persistent</text><text fill="#000000" font-family="sans-serif" font-size="13" lengthAdjust="spacing" textLength="27" x="12" y="328.309">data</text><text fill="#000000" font-family="sans-serif" font-size="13" lengthAdjust="spacing" textLength="3" x="39" y="328.309"> </text><text fill="#000000" font-family="sans-serif" font-size="13" lengthAdjust="spacing" textLength="46" x="42" y="328.309">storage</text><text fill="#000000" font-family="sans-serif" font-size="13" lengthAdjust="spacing" textLength="3" x="88" y="328.309"> </text><text fill="#000000" font-family="sans-serif" font-size="13" lengthAdjust="spacing" textLength="13" x="91" y="328.309">as</text><text fill="#000000" font-family="sans-serif" font-size="13" lengthAdjust="spacing" textLength="7" x="12" y="346.0151">a</text><text fill="#000000" font-family="sans-serif" font-size="13" lengthAdjust="spacing" textLength="3" x="19" y="346.0151"> </text><text fill="#000000" font-family="sans-serif" font-size="13" lengthAdjust="spacing" textLength="39" x="22" y="346.0151">whole.</text><text fill="#000000" font-family="sans-serif" font-size="13" lengthAdjust="spacing" textLength="3" x="61" y="346.0151"> </text><text fill="#000000" font-family="sans-serif" font-size="13" lengthAdjust="spacing" textLength="22" x="64" y="346.0151">The</text><text fill="#000000" font-family="sans-serif" font-size="13" lengthAdjust="spacing" textLength="46" x="12" y="363.7211">context</text><text fill="#000000" font-family="sans-serif" font-size="13" lengthAdjust="spacing" textLength="3" x="58" y="363.7211"> </text><text fill="#000000" font-family="sans-serif" font-size="13" lengthAdjust="spacing" textLength="9" x="61" y="363.7211">is</text><text fill="#000000" font-family="sans-serif" font-size="13" lengthAdjust="spacing" textLength="3" x="70" y="363.7211"> </text><text fill="#000000" font-family="sans-serif" font-size="13" lengthAdjust="spacing" textLength="20" x="73" y="363.7211">the</text><text fill="#000000" font-family="sans-serif" font-size="13" lengthAdjust="spacing" textLength="27" x="12" y="381.4271">data</text><text fill="#000000" font-family="sans-serif" font-size="13" lengthAdjust="spacing" textLength="3" x="39" y="381.4271"> </text><text fill="#000000" font-family="sans-serif" font-size="13" lengthAdjust="spacing" textLength="31" x="42" y="381.4271">itself,</text><text fill="#000000" font-family="sans-serif" font-size="13" lengthAdjust="spacing" textLength="3" x="73" y="381.4271"> </text><text fill="#000000" font-family="sans-serif" font-size="13" lengthAdjust="spacing" textLength="21" x="76" y="381.4271">not</text><text fill="#000000" font-family="sans-serif" font-size="13" lengthAdjust="spacing" textLength="20" x="12" y="399.1331">the</text><text fill="#000000" font-family="sans-serif" font-size="13" lengthAdjust="spacing" textLength="143" x="12" y="416.8391">implementation-specific</text><text fill="#000000" font-family="sans-serif" font-size="13" lengthAdjust="spacing" textLength="42" x="12" y="434.5451">details.</text></g><g id="elem_modelnote"><path d="M30.5,478.5 L30.5,612.4421 L145.5,612.4421 L145.5,488.5 L135.5,478.5 L30.5,478.5 " fill="#FEFFDD" style="stroke:#181818;stroke-width:0.5;"/><path d="M135.5,478.5 L135.5,488.5 L145.5,488.5 L135.5,478.5 " fill="#FEFFDD" style="stroke:#181818;stroke-width:1.0;"/><text fill="#000000" font-family="sans-serif" font-size="13" lengthAdjust="spacing" textLength="43" x="36.5" y="497.397">Handle</text><text fill="#000000" font-family="sans-serif" font-size="13" lengthAdjust="spacing" textLength="3" x="79.5" y="497.397"> </text><text fill="#000000" font-family="sans-serif" font-size="13" lengthAdjust="spacing" textLength="20" x="82.5" y="497.397">the</text><text fill="#000000" font-family="sans-serif" font-size="13" lengthAdjust="spacing" textLength="36" x="36.5" y="515.103">actual</text><text fill="#000000" font-family="sans-serif" font-size="13" lengthAdjust="spacing" textLength="94" x="36.5" y="532.809">communication</text><text fill="#000000" font-family="sans-serif" font-size="13" lengthAdjust="spacing" textLength="26" x="36.5" y="550.5151">with</text><text fill="#000000" font-family="sans-serif" font-size="13" lengthAdjust="spacing" textLength="3" x="62.5" y="550.5151"> </text><text fill="#000000" font-family="sans-serif" font-size="13" lengthAdjust="spacing" textLength="49" x="65.5" y="550.5151">storage,</text><text fill="#000000" font-family="sans-serif" font-size="13" lengthAdjust="spacing" textLength="28" x="36.5" y="568.2211">such</text><text fill="#000000" font-family="sans-serif" font-size="13" lengthAdjust="spacing" textLength="3" x="64.5" y="568.2211"> </text><text fill="#000000" font-family="sans-serif" font-size="13" lengthAdjust="spacing" textLength="13" x="67.5" y="568.2211">as</text><text fill="#000000" font-family="sans-serif" font-size="13" lengthAdjust="spacing" textLength="55" x="36.5" y="585.9271">database</text><text fill="#000000" font-family="sans-serif" font-size="13" lengthAdjust="spacing" textLength="52" x="36.5" y="603.6331">systems.</text></g><!--link routes to controllers--><g id="link_routes_controllers"><path d="M280,96.98 C280,112.99 280,128.99 280,144.99 " fill="none" id="routes-to-controllers" style="stroke:#181818;stroke-width:1.0;"/><polygon fill="#181818" points="280,149.85,284,140.85,280,144.85,276,140.85,280,149.85" style="stroke:#181818;stroke-width:1.0;"/></g><!--link routenote to routes--><g id="link_routenote_routes"><path codeLine="12" d="M145.49,52.74 C179.07,56.46 220.38,61.02 248.08,64.08 " fill="none" id="routenote-routes" style="stroke:#181818;stroke-width:1.0;stroke-dasharray:7.0,7.0;"/></g><!--link ctrlnote to controllers--><g id="link_ctrlnote_controllers"><path codeLine="15" d="M141.93,180.5 C170.8,180.5 206.18,180.5 233.76,180.5 " fill="none" id="ctrlnote-controllers" style="stroke:#181818;stroke-width:1.0;stroke-dasharray:7.0,7.0;"/></g><!--link controllers to repositories--><g id="link_controllers_repositories"><path d="M280,209.85 C280,247.65 280,285.44 280,323.23 " fill="none" id="controllers-to-repositories" style="stroke:#181818;stroke-width:1.0;"/><polygon fill="#181818" points="280,327.78,284,318.78,280,322.78,276,318.78,280,327.78" style="stroke:#181818;stroke-width:1.0;"/></g><!--link reponote to repositories--><g id="link_reponote_repositories"><path codeLine="20" d="M170.4,358.5 C190.55,358.5 211.53,358.5 229.61,358.5 " fill="none" id="reponote-repositories" style="stroke:#181818;stroke-width:1.0;stroke-dasharray:7.0,7.0;"/></g><!--link repositories to models--><g id="link_repositories_models"><path d="M280,387.92 C280,412.91 280,437.9 280,462.89 " fill="none" id="repositories-to-models" style="stroke:#181818;stroke-width:1.0;"/><polygon fill="#181818" points="280,467.73,284,458.73,280,462.73,276,458.73,280,467.73" style="stroke:#181818;stroke-width:1.0;"/></g><!--link modelnote to models--><g id="link_modelnote_models"><path codeLine="25" d="M145.75,531.46 C178.12,523.46 217.6,513.69 245.14,506.87 " fill="none" id="modelnote-models" style="stroke:#181818;stroke-width:1.0;stroke-dasharray:7.0,7.0;"/></g><!--SRC=[PP9FJyCm3CNlV0fh5oxR16SaBXpO1Gc9IPozr5ijaYR4hiOVyTrnqdOhur95jlFyUoy5yBHNq0YP3wr2mvcSSkok01AwDpmGvDWh2Np_p6ekTfgZzvGl6fbI5DQO-V9AY0tvMhFYDSWRTmap1WZuyKGYDlF2NmItDpSsS6uVCwPNRhIj7MkDFAlxEONLkwW4YqVKbZBO1p2bR21evGOLOPzZWCrs-soKxps9ode1A8DWkJs9LwNrQjnqTTBUODVugfiyEomvmQuNxWmVV3omkmE7tbTzIxAP4K8WRMCphdIQ_RXnEfQ5SqEbDKlPxCwpFKCzn13whk0G7DbYIZREOYvqi2rsepo0hKKujj7J6hRjy8RqeS1Iqwgph49-lopIjSWXUGecLSsk997ZFJjeI97zb9znJV6DnvhU1UwVNyFi33_4ltJhopdjqHlXPAqaNSsDPfOWlMlByeAzGo6GJ_CSHgIgFJATpWLgMFeB]--></g></svg>