<?xml version="1.0" encoding="UTF-8" standalone="no"?><svg xmlns="http://www.w3.org/2000/svg" xmlns:xlink="http://www.w3.org/1999/xlink" contentStyleType="text/css" height="547px" preserveAspectRatio="none" style="width:462px;height:547px;background:#FFFFFF;" version="1.1" viewBox="0 0 462 547" width="462px" zoomAndPan="magnify"><defs/><g><!--cluster repositories--><g id="cluster_repositories"><path d="M88.17,6.602 L172.17,6.602 A3.75,3.75 0 0 1 174.67,9.102 L181.67,31.6699 L453.17,31.6699 A2.5,2.5 0 0 1 455.67,34.1699 L455.67,176.102 A2.5,2.5 0 0 1 453.17,178.602 L88.17,178.602 A2.5,2.5 0 0 1 85.67,176.102 L85.67,9.102 A2.5,2.5 0 0 1 88.17,6.602 " fill="none" style="stroke:#000000;stroke-width:1.5;"/><line style="stroke:#000000;stroke-width:1.5;" x1="85.67" x2="181.67" y1="31.6699" y2="31.6699"/><text fill="#000000" font-family="sans-serif" font-size="14" font-weight="bold" lengthAdjust="spacing" textLength="83" x="89.67" y="23.5679">repositories</text></g><!--cluster mongo--><g id="cluster_mongo"><path d="M112.17,52.602 L163.17,52.602 A3.75,3.75 0 0 1 165.67,55.102 L172.67,77.6699 L289.17,77.6699 A2.5,2.5 0 0 1 291.67,80.1699 L291.67,152.102 A2.5,2.5 0 0 1 289.17,154.602 L112.17,154.602 A2.5,2.5 0 0 1 109.67,152.102 L109.67,55.102 A2.5,2.5 0 0 1 112.17,52.602 " fill="none" style="stroke:#000000;stroke-width:1.5;"/><line style="stroke:#000000;stroke-width:1.5;" x1="109.67" x2="172.67" y1="77.6699" y2="77.6699"/><text fill="#000000" font-family="sans-serif" font-size="14" font-weight="bold" lengthAdjust="spacing" textLength="50" x="113.67" y="69.5679">mongo</text></g><!--cluster models--><g id="cluster_models"><path d="M118.67,202.602 L170.67,202.602 A3.75,3.75 0 0 1 173.17,205.102 L180.17,227.6699 L282.67,227.6699 A2.5,2.5 0 0 1 285.17,230.1699 L285.17,538.102 A2.5,2.5 0 0 1 282.67,540.602 L118.67,540.602 A2.5,2.5 0 0 1 116.17,538.102 L116.17,205.102 A2.5,2.5 0 0 1 118.67,202.602 " fill="none" style="stroke:#000000;stroke-width:1.5;"/><line style="stroke:#000000;stroke-width:1.5;" x1="116.17" x2="180.17" y1="227.6699" y2="227.6699"/><text fill="#000000" font-family="sans-serif" font-size="14" font-weight="bold" lengthAdjust="spacing" textLength="51" x="120.17" y="219.5679">models</text></g><!--cluster models.mongo--><g id="cluster_models.mongo"><path d="M142.67,248.602 L248.67,248.602 A3.75,3.75 0 0 1 251.17,251.102 L258.17,273.6699 L258.67,273.6699 A2.5,2.5 0 0 1 261.17,276.1699 L261.17,514.102 A2.5,2.5 0 0 1 258.67,516.602 L142.67,516.602 A2.5,2.5 0 0 1 140.17,514.102 L140.17,251.102 A2.5,2.5 0 0 1 142.67,248.602 " fill="none" style="stroke:#000000;stroke-width:1.5;"/><line style="stroke:#000000;stroke-width:1.5;" x1="140.17" x2="258.17" y1="273.6699" y2="273.6699"/><text fill="#000000" font-family="sans-serif" font-size="14" font-weight="bold" lengthAdjust="spacing" textLength="105" x="144.17" y="265.5679">models.mongo</text></g><!--class IRepository--><g id="elem_IRepository"><rect codeLine="45" fill="#F1F1F1" height="48" id="IRepository" rx="2.5" ry="2.5" style="stroke:#181818;stroke-width:0.5;" width="104" x="335.67" y="90.602"/><ellipse cx="350.67" cy="106.602" fill="#B4A7E5" rx="11" ry="11" style="stroke:#181818;stroke-width:1.0;"/><path d="M346.7013,113.102 L346.7013,111.3989 L349.0606,111.1332 L349.0606,102.9301 L346.7013,102.6645 L346.7013,100.9614 L353.8419,100.9614 L353.8419,102.6645 L351.42,102.9301 L351.42,111.1332 L353.8419,111.3989 L353.8419,113.102 L346.7013,113.102 Z " fill="#000000"/><text fill="#000000" font-family="sans-serif" font-size="14" font-style="italic" lengthAdjust="spacing" textLength="72" x="364.67" y="112.034">IRepository</text><line style="stroke:#181818;stroke-width:0.5;" x1="336.67" x2="438.67" y1="122.602" y2="122.602"/><line style="stroke:#181818;stroke-width:0.5;" x1="336.67" x2="438.67" y1="130.602" y2="130.602"/></g><!--class MongoRepository--><g id="elem_MongoRepository"><rect codeLine="47" fill="#F1F1F1" height="48" id="MongoRepository" rx="2.5" ry="2.5" style="stroke:#181818;stroke-width:0.5;" width="150" x="125.67" y="90.602"/><ellipse cx="140.67" cy="106.602" fill="#ADD1B2" rx="11" ry="11" style="stroke:#181818;stroke-width:1.0;"/><path d="M140.1388,113.5239 Q138.3888,113.5239 137.2481,112.7895 Q136.1231,112.0395 135.5606,110.6957 Q135.0138,109.3364 135.0138,107.5395 Q135.0138,105.5082 135.67,104.0551 Q136.3263,102.602 137.6075,101.8207 Q138.8888,101.0395 140.7638,101.0395 Q141.6544,101.0395 142.3263,101.227 Q142.9981,101.3989 143.6856,101.7426 L142.8731,103.7582 Q142.2481,103.4457 141.7013,103.3207 Q141.17,103.1957 140.6856,103.1957 Q139.5138,103.1957 138.8106,103.727 Q138.1075,104.2582 137.8106,105.2114 Q137.5138,106.1645 137.5138,107.4301 Q137.5138,109.4457 138.2325,110.4145 Q138.9513,111.3676 140.545,111.3676 Q141.1388,111.3676 141.7638,111.2114 Q142.3888,111.0551 143.2169,110.6801 L143.2169,112.8989 Q142.4825,113.2114 141.6856,113.3676 Q140.9044,113.5239 140.1388,113.5239 Z " fill="#000000"/><text fill="#000000" font-family="sans-serif" font-size="14" lengthAdjust="spacing" textLength="118" x="154.67" y="112.034">MongoRepository</text><line style="stroke:#181818;stroke-width:0.5;" x1="126.67" x2="274.67" y1="122.602" y2="122.602"/><line style="stroke:#181818;stroke-width:0.5;" x1="126.67" x2="274.67" y1="130.602" y2="130.602"/></g><!--class Config--><g id="elem_Config"><rect codeLine="53" fill="#F1F1F1" height="48" id="Config" rx="2.5" ry="2.5" style="stroke:#181818;stroke-width:0.5;" width="76" x="162.67" y="286.602"/><ellipse cx="177.67" cy="302.602" fill="#ADD1B2" rx="11" ry="11" style="stroke:#181818;stroke-width:1.0;"/><path d="M177.1388,309.5239 Q175.3888,309.5239 174.2481,308.7895 Q173.1231,308.0395 172.5606,306.6957 Q172.0138,305.3364 172.0138,303.5395 Q172.0138,301.5082 172.67,300.0551 Q173.3263,298.602 174.6075,297.8207 Q175.8888,297.0395 177.7638,297.0395 Q178.6544,297.0395 179.3263,297.227 Q179.9981,297.3989 180.6856,297.7426 L179.8731,299.7582 Q179.2481,299.4457 178.7013,299.3207 Q178.17,299.1957 177.6856,299.1957 Q176.5138,299.1957 175.8106,299.727 Q175.1075,300.2582 174.8106,301.2114 Q174.5138,302.1645 174.5138,303.4301 Q174.5138,305.4457 175.2325,306.4145 Q175.9513,307.3676 177.545,307.3676 Q178.1388,307.3676 178.7638,307.2114 Q179.3888,307.0551 180.2169,306.6801 L180.2169,308.8989 Q179.4825,309.2114 178.6856,309.3676 Q177.9044,309.5239 177.1388,309.5239 Z " fill="#000000"/><text fill="#000000" font-family="sans-serif" font-size="14" lengthAdjust="spacing" textLength="44" x="191.67" y="308.034">Config</text><line style="stroke:#181818;stroke-width:0.5;" x1="163.67" x2="237.67" y1="318.602" y2="318.602"/><line style="stroke:#181818;stroke-width:0.5;" x1="163.67" x2="237.67" y1="326.602" y2="326.602"/></g><!--class Session--><g id="elem_Session"><rect codeLine="54" fill="#F1F1F1" height="48" id="Session" rx="2.5" ry="2.5" style="stroke:#181818;stroke-width:0.5;" width="83" x="159.17" y="369.602"/><ellipse cx="174.17" cy="385.602" fill="#ADD1B2" rx="11" ry="11" style="stroke:#181818;stroke-width:1.0;"/><path d="M173.6388,392.5239 Q171.8888,392.5239 170.7481,391.7895 Q169.6231,391.0395 169.0606,389.6957 Q168.5138,388.3364 168.5138,386.5395 Q168.5138,384.5082 169.17,383.0551 Q169.8263,381.602 171.1075,380.8207 Q172.3888,380.0395 174.2638,380.0395 Q175.1544,380.0395 175.8263,380.227 Q176.4981,380.3989 177.1856,380.7426 L176.3731,382.7582 Q175.7481,382.4457 175.2013,382.3207 Q174.67,382.1957 174.1856,382.1957 Q173.0138,382.1957 172.3106,382.727 Q171.6075,383.2582 171.3106,384.2114 Q171.0138,385.1645 171.0138,386.4301 Q171.0138,388.4457 171.7325,389.4145 Q172.4513,390.3676 174.045,390.3676 Q174.6388,390.3676 175.2638,390.2114 Q175.8888,390.0551 176.7169,389.6801 L176.7169,391.8989 Q175.9825,392.2114 175.1856,392.3676 Q174.4044,392.5239 173.6388,392.5239 Z " fill="#000000"/><text fill="#000000" font-family="sans-serif" font-size="14" lengthAdjust="spacing" textLength="51" x="188.17" y="391.034">Session</text><line style="stroke:#181818;stroke-width:0.5;" x1="160.17" x2="241.17" y1="401.602" y2="401.602"/><line style="stroke:#181818;stroke-width:0.5;" x1="160.17" x2="241.17" y1="409.602" y2="409.602"/></g><!--class User--><g id="elem_User"><rect codeLine="55" fill="#F1F1F1" height="48" id="User" rx="2.5" ry="2.5" style="stroke:#181818;stroke-width:0.5;" width="63" x="169.17" y="452.602"/><ellipse cx="184.17" cy="468.602" fill="#ADD1B2" rx="11" ry="11" style="stroke:#181818;stroke-width:1.0;"/><path d="M183.6388,475.5239 Q181.8888,475.5239 180.7481,474.7895 Q179.6231,474.0395 179.0606,472.6957 Q178.5138,471.3364 178.5138,469.5395 Q178.5138,467.5082 179.17,466.0551 Q179.8263,464.602 181.1075,463.8207 Q182.3888,463.0395 184.2638,463.0395 Q185.1544,463.0395 185.8263,463.227 Q186.4981,463.3989 187.1856,463.7426 L186.3731,465.7582 Q185.7481,465.4457 185.2013,465.3207 Q184.67,465.1957 184.1856,465.1957 Q183.0138,465.1957 182.3106,465.727 Q181.6075,466.2582 181.3106,467.2114 Q181.0138,468.1645 181.0138,469.4301 Q181.0138,471.4457 181.7325,472.4145 Q182.4513,473.3676 184.045,473.3676 Q184.6388,473.3676 185.2638,473.2114 Q185.8888,473.0551 186.7169,472.6801 L186.7169,474.8989 Q185.9825,475.2114 185.1856,475.3676 Q184.4044,475.5239 183.6388,475.5239 Z " fill="#000000"/><text fill="#000000" font-family="sans-serif" font-size="14" lengthAdjust="spacing" textLength="31" x="198.17" y="474.034">User</text><line style="stroke:#181818;stroke-width:0.5;" x1="170.17" x2="231.17" y1="484.602" y2="484.602"/><line style="stroke:#181818;stroke-width:0.5;" x1="170.17" x2="231.17" y1="492.602" y2="492.602"/></g><!--link Config to MongoRepository--><g id="link_Config_MongoRepository"><path codeLine="59" d="M200.67,286.102 C200.67,239.192 200.67,192.282 200.67,145.372 " fill="none" id="Config-to-MongoRepository" style="stroke:#181818;stroke-width:1.0;"/><polygon fill="#181818" points="200.67,140.572,196.67,149.572,200.67,145.572,204.67,149.572,200.67,140.572" style="stroke:#181818;stroke-width:1.0;"/></g><!--link Session to MongoRepository--><g id="link_Session_MongoRepository"><path codeLine="60" d="M158.99,391.402 C121.75,386.882 69.77,373.572 47.67,335.102 C6,262.542 98.08,183.282 156.77,142.422 " fill="none" id="Session-to-MongoRepository" style="stroke:#181818;stroke-width:1.0;"/><polygon fill="#181818" points="160.74,139.682,151.0618,141.5074,156.6265,142.5243,155.6095,148.089,160.74,139.682" style="stroke:#181818;stroke-width:1.0;"/></g><!--link User to MongoRepository--><g id="link_User_MongoRepository"><path codeLine="61" d="M168.95,475.452 C131.67,472.132 71.82,460.142 47.67,418.102 C18.9,368.002 27.25,342.152 47.67,288.102 C70.64,227.342 125.66,174.102 163.06,143.132 " fill="none" id="User-to-MongoRepository" style="stroke:#181818;stroke-width:1.0;"/><polygon fill="#181818" points="166.81,140.062,157.313,142.671,162.9421,143.2305,162.3826,148.8596,166.81,140.062" style="stroke:#181818;stroke-width:1.0;"/></g><!--link MongoRepository to IRepository--><g id="link_MongoRepository_IRepository"><path codeLine="63" d="M276.12,114.602 C288.7,114.602 301.74,114.602 314.27,114.602 " fill="none" id="MongoRepository-to-IRepository" style="stroke:#181818;stroke-width:1.0;"/><polygon fill="none" points="313.85,107.602,333.85,114.602,313.85,121.602,313.85,107.602" style="stroke:#181818;stroke-width:1.0;"/></g><!--SRC=[RP0z3i8m38Ntdk9Te1oX2nC32uW3HAaRB4fSnLbGwTr9gqRqRydmFhtFiO6MceWe2EoU4JK7if755q1dxCiuGg1EbAC49aMV0C0-KcYC9LnkcNxG3nFClRTu9tC1iArHnNNCzfNn7OfYsQsfpTFMuMdjpUQp-8PT5lxpEwccVVRWeHHsysTBMMr_cbWs7SB9Ta0IskvSbjzgURSV]--></g></svg>